<svg width="181"
     height="68"
     viewBox="0 0 181 68"
     fill="none"
     xmlns="http://www.w3.org/2000/svg">
  <g clip-path="url(#clip0)">
    <rect width="181"
          height="68"
          fill="#B2E1F5"
          fill-opacity="0.86" />
    <path d="M33.0555 15.4L40.0555 15.25C40.3221 15.25 40.4555 15.5333 40.4555 16.1C40.4555 16.6667 40.3221 16.95 40.0555 16.95H37.9055C37.0721 16.95 36.5221 17.1167 36.2555 17.45C35.9888 17.75 35.8555 18.35 35.8555 19.25V42.4C35.8555 47.8667 35.4055 51.75 34.5055 54.05C33.4388 56.5833 31.8388 58.65 29.7055 60.25C27.5721 61.85 25.1555 62.65 22.4555 62.65C21.5888 62.65 20.9388 62.4667 20.5055 62.1C20.0388 61.7333 19.8055 61.3167 19.8055 60.85C19.8055 59.5833 20.5388 58.6667 22.0055 58.1C23.4055 58.9667 25.0055 59.4 26.8055 59.4C27.8721 59.4 28.6721 58.8833 29.2055 57.85C30.2055 55.7833 30.7055 50.7833 30.7055 42.85V21.4C30.7055 18.4667 30.3555 17 29.6555 17H26.7555C26.4888 17 26.3555 16.7333 26.3555 16.2C26.3555 15.6333 26.4888 15.35 26.7555 15.35L33.0555 15.4ZM46.016 27.2L50.216 27.05C50.5493 27.05 50.716 27.1833 50.716 27.45C50.716 27.6167 50.666 27.9 50.566 28.3C50.3993 28.9 50.316 30.2667 50.316 32.4V37.85C50.316 41.25 50.716 43.6167 51.516 44.95C52.3493 46.25 53.8827 46.9 56.116 46.9C57.116 46.9 58.0493 46.6333 58.916 46.1C59.7827 45.5333 60.466 44.7833 60.966 43.85V33.05C60.966 30.1167 60.616 28.65 59.916 28.65H57.466C57.1993 28.6167 57.066 28.3667 57.066 27.9C57.066 27.4 57.166 27.15 57.366 27.15L60.916 27.2L65.116 27.05C65.4494 27.05 65.616 27.1833 65.616 27.45C65.616 27.6167 65.566 27.9 65.466 28.3C65.2993 28.9 65.216 30.2667 65.216 32.4V41.7C65.216 43.9667 65.4493 45.3 65.916 45.7C66.1827 45.9 66.5327 46 66.966 46L68.666 45.85C68.9327 45.85 69.066 46.1 69.066 46.6C69.066 47.0667 68.966 47.3167 68.766 47.35C66.5327 47.7167 64.6827 48.3333 63.216 49.2C62.7493 49.5 62.4493 49.65 62.316 49.65C61.516 49.65 61.116 48.4333 61.116 46H61.016C60.116 47.2 58.9993 48.1167 57.666 48.75C56.3327 49.35 55.066 49.65 53.866 49.65C48.666 49.65 46.066 46.45 46.066 40.05V33.05C46.066 30.1167 45.716 28.65 45.016 28.65H42.566C42.2993 28.6167 42.166 28.3667 42.166 27.9C42.166 27.4 42.266 27.15 42.466 27.15L46.016 27.2ZM79.4375 12.25L79.3875 31.25V43.1C79.3875 46.0333 79.7375 47.5 80.4375 47.5H82.8875C83.1542 47.5 83.2875 47.75 83.2875 48.25C83.2875 48.75 83.1875 49 82.9875 49C82.9875 49 81.1708 48.9833 77.5375 48.95L71.7375 49.1C71.5042 49.1 71.3875 48.85 71.3875 48.35C71.3875 47.85 71.4708 47.6 71.6375 47.6H74.5375C74.9375 47.6 75.1375 47.3167 75.1375 46.75V19.8C75.1375 16.5667 74.7208 14.95 73.8875 14.95H71.6375C71.3708 14.95 71.2375 14.7 71.2375 14.2C71.2375 13.7 71.3375 13.45 71.5375 13.45C72.9042 13.45 74.0042 13.3333 74.8375 13.1C75.6708 12.8333 76.2542 12.65 76.5875 12.55C76.9208 12.4167 77.3208 12.25 77.7875 12.05C78.2875 11.8167 78.5875 11.6833 78.6875 11.65C79.1875 11.65 79.4375 11.85 79.4375 12.25ZM92.3289 48.95L86.5289 49.1C86.2956 49.1 86.1789 48.85 86.1789 48.35C86.1789 47.85 86.2622 47.6 86.4289 47.6H89.3289C89.7289 47.6 89.9289 47.3167 89.9289 46.75V35C89.9289 31.7667 89.4622 30.15 88.5289 30.15H87.5289C87.2622 30.15 87.1289 29.9 87.1289 29.4C87.1289 28.9 87.2289 28.65 87.4289 28.65C88.9622 28.65 90.6289 27.7667 92.4289 26C93.0622 25.4 93.4622 25.1 93.6289 25.1C94.1289 25.1 94.3789 25.3 94.3789 25.7C94.3789 25.9667 94.3456 26.8667 94.2789 28.4C94.2122 29.9 94.1789 31.8167 94.1789 34.15V43.1C94.1789 46.0333 94.5289 47.5 95.2289 47.5H97.6789C97.9456 47.5 98.0789 47.75 98.0789 48.25C98.0789 48.75 97.9789 49 97.7789 49L92.3289 48.95ZM94.1289 17.1C94.1289 17.8333 93.8789 18.4667 93.3789 19C92.8789 19.5 92.2622 19.75 91.5289 19.75C90.7956 19.75 90.1456 19.5 89.5789 19C89.0456 18.5 88.7789 17.8833 88.7789 17.15C88.7789 16.3833 89.0289 15.7333 89.5289 15.2C90.0622 14.6667 90.6956 14.4 91.4289 14.4C92.1956 14.4 92.8289 14.6667 93.3289 15.2C93.8622 15.7 94.1289 16.3333 94.1289 17.1ZM113.171 45.4C114.438 45.4 115.538 45.2667 116.471 45C117.405 44.7333 118.088 44.4333 118.521 44.1L119.621 43.2C119.955 42.9333 120.205 42.8 120.371 42.8C120.738 42.8 120.921 43 120.921 43.4C120.921 44.1333 120.271 45.2667 118.971 46.8C118.338 47.5667 117.388 48.2333 116.121 48.8C114.855 49.3667 113.438 49.65 111.871 49.65C108.938 49.65 106.471 48.55 104.471 46.35C102.471 44.15 101.471 41.6167 101.471 38.75C101.471 35.15 102.655 32.2167 105.021 29.95C107.388 27.6833 110.005 26.55 112.871 26.55C115.038 26.55 116.855 27.3333 118.321 28.9C119.821 30.4333 120.571 32.4667 120.571 35C120.571 35.5333 120.455 35.9167 120.221 36.15C119.988 36.35 119.455 36.4833 118.621 36.55C117.788 36.5833 115.755 36.6167 112.521 36.65C109.288 36.6833 106.505 36.7667 104.171 36.9C104.171 39.7333 105.088 41.8667 106.921 43.3C108.788 44.7 110.871 45.4 113.171 45.4ZM116.321 33.45C116.321 32.3167 115.855 31.3333 114.921 30.5C113.988 29.6667 112.771 29.25 111.271 29.25C109.805 29.25 108.371 29.8 106.971 30.9C105.571 31.9667 104.688 33.45 104.321 35.35C105.188 35.25 106.938 35.1 109.571 34.9C112.205 34.6667 113.988 34.5 114.921 34.4C115.855 34.2667 116.321 33.95 116.321 33.45ZM131.563 21.85C131.563 20.65 130.763 20.05 129.163 20.05C128.963 20.05 128.746 20.0667 128.513 20.1C127.646 19.6667 127.213 18.9667 127.213 18C127.213 17.0333 127.479 16.2833 128.013 15.75C128.546 15.1833 129.296 14.9 130.263 14.9C131.263 14.9 132.096 15.3333 132.763 16.2C133.429 17.0667 133.763 18.0667 133.763 19.2C133.763 21.3667 133.179 23.1167 132.013 24.45C130.879 25.7833 129.263 27.0333 127.163 28.2L126.613 27.25C128.013 26.55 129.179 25.6833 130.113 24.65C131.079 23.6167 131.563 22.6833 131.563 21.85ZM155.253 43.35C155.253 45.3167 154.419 46.8667 152.753 48C151.086 49.1 149.186 49.65 147.053 49.65C144.953 49.65 143.403 49.3667 142.403 48.8C142.403 49.2 142.369 49.45 142.303 49.55C142.236 49.6833 142.036 49.75 141.703 49.75C141.369 49.75 141.186 49.6167 141.153 49.35C141.053 48.55 140.853 47.3 140.553 45.6C140.286 43.9 140.153 42.95 140.153 42.75C140.153 42.5167 140.236 42.35 140.403 42.25C140.603 42.15 140.819 42.1167 141.053 42.15C141.286 42.15 141.419 42.2333 141.453 42.4C142.586 46.1667 144.586 48.05 147.453 48.05C148.553 48.05 149.486 47.75 150.253 47.15C151.053 46.5167 151.453 45.6833 151.453 44.65C151.453 43.5833 151.103 42.6667 150.403 41.9C149.703 41.1 148.853 40.4333 147.853 39.9C146.853 39.3667 145.853 38.8167 144.853 38.25C143.853 37.6833 143.003 36.95 142.303 36.05C141.603 35.1167 141.253 34.0333 141.253 32.8C141.253 30.8333 141.969 29.3 143.403 28.2C144.869 27.0667 146.703 26.5 148.903 26.5C150.069 26.5 151.153 26.6667 152.153 27C152.019 26.4667 151.986 26.15 152.053 26.05C152.119 25.9167 152.286 25.85 152.553 25.85C152.819 25.85 153.003 25.8833 153.103 25.95C153.203 26.0167 153.303 26.25 153.403 26.65C153.503 27.0167 153.603 27.5 153.703 28.1C153.803 28.6667 153.953 29.4 154.153 30.3C154.353 31.1667 154.469 31.7167 154.503 31.95C154.569 32.15 154.536 32.3 154.403 32.4C154.269 32.4667 154.053 32.5 153.753 32.5C153.486 32.5 153.303 32.3667 153.203 32.1C152.203 29.4333 150.619 28.1 148.453 28.1C147.386 28.1 146.536 28.4167 145.903 29.05C145.269 29.65 144.953 30.4333 144.953 31.4C144.953 32.3333 145.303 33.15 146.003 33.85C146.703 34.55 147.553 35.15 148.553 35.65C149.586 36.15 150.603 36.7 151.603 37.3C152.636 37.8667 153.503 38.6667 154.203 39.7C154.903 40.7333 155.253 41.95 155.253 43.35Z"
          fill="black" />
  </g>
  <defs>
    <clipPath id="clip0">
      <rect width="181"
            height="68"
            fill="white" />
    </clipPath>
  </defs>
</svg>